<?xml version="1.0" encoding="UTF-8" standalone="no"?>
<svg width="451px" height="82px" viewBox="0 0 451 82" version="1.1" xmlns="http://www.w3.org/2000/svg" xmlns:xlink="http://www.w3.org/1999/xlink" xmlns:sketch="http://www.bohemiancoding.com/sketch/ns">
    <!-- Generator: Sketch 3.4.2 (15855) - http://www.bohemiancoding.com/sketch -->
    <title>上证容器云</title>
    <desc>Created with Sketch.</desc>
    <defs></defs>
    <g id="Page-1" stroke="none" stroke-width="1" fill="none" fill-rule="evenodd" sketch:type="MSPage">
        <g id="上证容器云" sketch:type="MSLayerGroup" fill="#FFFFFF">
            <path d="M100.4,35.5 C100.5,34.5 100.5,33.6 100.5,32.6 C100.6,14.6 86,0 68,0 C57.3,0 47.9,5.1 42,13 C39.3,11.4 36.1,10.5 32.8,10.5 C22.6,10.5 14.3,18.8 14.3,29 C14.3,31.1 14.7,33.2 15.3,35.1 C6.4,38.6 0.1,47.2 0.1,57.3 C0.1,70.4 10.8,81.1 23.9,81.1 L24.7,81.1 L24.7,81.1 L40.1,81.1 L40.1,70 C32.1,64.2 26.8,54.8 26.8,44.2 C26.8,36.6 29.5,29.3 34.4,23.5 C36.3,21.3 39.6,21 41.9,22.9 C44.1,24.8 44.4,28.2 42.5,30.4 C39.2,34.2 37.4,39.1 37.4,44.2 C37.4,55.9 46.9,65.4 58.6,65.4 C70.3,65.4 79.8,55.9 79.8,44.2 C79.8,39.1 78,34.3 74.7,30.4 C72.8,28.2 73.1,24.8 75.3,22.9 C77.5,21 80.9,21.3 82.8,23.5 C87.7,29.3 90.4,36.6 90.4,44.2 C90.4,54.8 85.2,64.2 77.1,70 L77.1,81.1 L91.5,81.1 L91.5,81.1 C104.2,80.7 114.5,70.2 114.5,57.4 C114.7,47.5 108.8,39.2 100.4,35.5 L100.4,35.5 Z M58.7,58.1 C51.4,58.1 45.4,52.2 45.4,44.8 C45.4,37.5 51.3,31.5 58.7,31.5 C66.1,31.5 72,37.5 72,44.8 C72,52.2 66,58.1 58.7,58.1 L58.7,58.1 Z" id="Shape" sketch:type="MSShapeGroup"></path>
            <path d="M163.196,60.064 L163.196,38.372 L186.588,38.372 L186.588,28.376 L163.196,28.376 L163.196,9.608 L152.52,9.608 L152.52,60.064 L128.652,60.064 L128.652,70.06 L191.416,70.06 L191.416,60.064 L163.196,60.064 Z M213.1845,20.012 C210.7365,17.02 205.5685,12.6 201.8965,9.54 L195.5725,15.524 C199.2445,18.924 204.2765,23.684 206.4525,26.812 L213.1845,20.012 Z M209.8525,52.244 L209.8525,29.6 L193.1245,29.6 L193.1245,39.052 L200.2645,39.052 L200.2645,56.46 C200.2645,61.016 197.6805,64.62 195.7765,66.388 C197.4085,67.612 200.6045,70.808 201.6925,72.644 C202.9845,70.808 205.5685,68.496 218.4205,56.868 C217.1965,54.964 215.3605,50.884 214.4765,48.096 L209.8525,52.244 Z M244.6685,61.764 L244.6685,44.832 L254.5285,44.832 L254.5285,35.652 L244.6685,35.652 L244.6685,21.78 L255.8205,21.78 L255.8205,12.6 L216.5845,12.6 L216.5845,21.78 L234.4685,21.78 L234.4685,61.764 L229.4365,61.764 L229.4365,31.912 L219.6445,31.912 L219.6445,61.764 L215.1565,61.764 L215.1565,70.944 L257.1125,70.944 L257.1125,61.764 L244.6685,61.764 Z M276.705,23.072 C275.005,25.52 272.557,27.832 269.701,29.872 L269.701,22.732 L309.141,22.732 L309.141,29.396 C305.945,27.152 302.477,24.908 299.621,23.208 L292.821,28.784 C298.465,32.388 305.741,37.828 309.005,41.5 L316.281,35.176 C314.717,33.612 312.337,31.708 309.753,29.872 L319.273,29.872 L319.273,13.824 L296.017,13.824 C295.337,11.852 294.317,9.676 293.365,7.908 L282.893,10.084 C283.437,11.24 283.913,12.532 284.389,13.824 L260.045,13.824 L260.045,29.872 L269.633,29.872 C267.253,31.572 264.601,33.068 261.949,34.156 C263.853,35.924 267.117,39.868 268.545,41.772 C274.937,38.304 281.805,32.456 285.953,26.2 L276.705,23.072 Z M281.193,49.592 C284.389,47.212 287.381,44.56 290.033,41.568 C293.161,44.628 296.289,47.28 299.621,49.592 L281.193,49.592 Z M279.153,63.124 L279.153,58.228 L299.961,58.228 L299.961,63.124 L279.153,63.124 Z M287.585,29.532 C281.465,40.14 269.837,47.348 257.189,51.36 C259.433,53.536 261.949,56.936 263.241,59.384 C265.417,58.568 267.525,57.616 269.565,56.596 L269.565,73.46 L279.153,73.46 L279.153,71.76 L299.961,71.76 L299.961,73.46 L310.093,73.46 L310.093,55.78 C311.997,56.732 313.901,57.684 315.941,58.568 C317.165,55.712 319.749,52.448 322.061,50.34 C311.657,46.804 302.817,42.248 295.201,34.768 C295.541,34.224 295.813,33.748 296.153,33.204 L287.585,29.532 Z M364.9775,63.6 L364.9775,60.064 L370.7575,60.064 L370.7575,63.6 L364.9775,63.6 Z M363.6175,32.116 L360.9655,34.564 C362.4615,35.176 364.0935,35.992 365.6575,36.808 L354.3695,36.808 C355.2535,35.312 356.1375,33.748 356.8855,32.116 L363.6175,32.116 Z M342.1975,23.888 L336.0095,23.888 L336.0095,19.74 L342.1975,19.74 L342.1975,23.888 Z M365.1815,19.74 L371.9815,19.74 L371.9815,23.888 L365.1815,23.888 L365.1815,19.74 Z M342.8095,63.6 L337.7775,63.6 L337.7775,60.064 L342.8095,60.064 L342.8095,63.6 Z M385.7175,45.308 L385.7175,36.808 L374.5655,36.808 L376.3335,35.108 C375.1775,34.156 373.4095,33.068 371.5055,32.116 L381.4335,32.116 L381.4335,11.512 L356.2735,11.512 L356.2735,31.98 L351.5135,31.096 L351.5135,11.512 L327.3055,11.512 L327.3055,32.116 L346.2775,32.116 C345.3935,33.68 344.3735,35.312 343.2175,36.808 L323.2255,36.808 L323.2255,45.308 L334.0375,45.308 C330.6375,47.62 326.4895,49.728 321.6615,51.496 C323.4975,53.196 325.9455,56.936 326.8295,59.248 C327.5095,58.976 328.1895,58.704 328.8015,58.364 L328.8015,73.46 L337.7775,73.46 L337.7775,72.032 L342.8095,72.032 L342.8095,73.052 L352.2615,73.052 L352.2615,51.632 L340.6335,51.632 C343.3535,49.66 345.7335,47.552 347.8415,45.308 L359.1295,45.308 C361.1695,47.62 363.4815,49.728 366.0655,51.632 L356.0015,51.632 L356.0015,73.46 L364.9775,73.46 L364.9775,72.032 L370.7575,72.032 L370.7575,73.052 L380.2775,73.052 L380.2775,58.976 L381.3655,59.316 C382.6575,56.936 385.4455,53.264 387.4855,51.428 C381.9775,50.136 376.6735,47.96 372.3215,45.308 L385.7175,45.308 Z M443.322,12.804 L396.13,12.804 L396.13,23.004 L443.322,23.004 L443.322,12.804 Z M450.326,42.044 L450.326,31.776 L388.174,31.776 L388.174,42.044 L405.242,42.044 C401.706,48.504 397.762,53.944 396.062,55.712 C393.818,58.16 392.458,59.452 390.282,60.064 C391.642,63.192 393.546,68.836 394.158,71.08 C398.306,69.584 403.746,69.312 436.318,67 C437.814,69.584 439.038,72.032 439.99,74.072 L449.714,68.156 C446.246,61.764 439.922,52.244 434.346,44.764 L425.166,49.524 C426.866,51.972 428.634,54.692 430.47,57.412 L407.35,58.568 C411.498,53.74 415.782,48.028 419.386,42.044 L450.326,42.044 Z" sketch:type="MSShapeGroup"></path>
        </g>
    </g>
</svg>